<svg id="clock" width="20" height="20" viewBox="0 0 20 20" fill="none" xmlns="http://www.w3.org/2000/svg">
<path d="M10 20C4.477 20 0 15.523 0 10C0 4.477 4.477 0 10 0C15.523 0 20 4.477 20 10C20 15.523 15.523 20 10 20ZM10 18C12.1217 18 14.1566 17.1571 15.6569 15.6569C17.1571 14.1566 18 12.1217 18 10C18 7.87827 17.1571 5.84344 15.6569 4.34315C14.1566 2.84285 12.1217 2 10 2C7.87827 2 5.84344 2.84285 4.34315 4.34315C2.84285 5.84344 2 7.87827 2 10C2 12.1217 2.84285 14.1566 4.34315 15.6569C5.84344 17.1571 7.87827 18 10 18ZM11 10H15V12H9V5H11V10Z" fill="#E74C3C"/>
</svg>

<svg id="line" width="132" height="2" viewBox="0 0 132 2" fill="none" xmlns="http://www.w3.org/2000/svg">
<line x1="132" y1="1" x2="-8.74227e-08" y2="0.999988" stroke="#A92A1D" stroke-width="2"/>
</svg>

<svg id="play" fill="#FFFFFF" stroke="#000000" version="1.1" xmlns="http://www.w3.org/2000/svg" viewBox="0 0 60 60" xml:space="preserve"><path d="m45.563 29.174-22-15A1 1 0 0 0 22 15v30a1 1 0 0 0 1.563.826l22-15a1 1 0 0 0 0-1.652zM24 43.107V16.893L43.225 30 24 43.107z"/><path d="M30 0C13.458 0 0 13.458 0 30s13.458 30 30 30 30-13.458 30-30S46.542 0 30 0zm0 58C14.56 58 2 45.44 2 30S14.56 2 30 2s28 12.56 28 28-12.56 28-28 28z"/></svg>

<svg id="scrollarrow" width="8" height="23" viewBox="0 0 8 23" fill="none" xmlns="http://www.w3.org/2000/svg">
<path d="M3.64645 22.8536C3.84171 23.0488 4.15829 23.0488 4.35355 22.8536L7.53553 19.6716C7.7308 19.4763 7.7308 19.1597 7.53553 18.9645C7.34027 18.7692 7.02369 18.7692 6.82843 18.9645L4 21.7929L1.17157 18.9645C0.976312 18.7692 0.659729 18.7692 0.464467 18.9645C0.269205 19.1597 0.269205 19.4763 0.464467 19.6716L3.64645 22.8536ZM3.5 0.5L3.5 22.5L4.5 22.5L4.5 0.5L3.5 0.5Z" fill="white"/>
</svg>

<svg id="vector" width="165" height="28" viewBox="0 0 165 28" fill="none" xmlns="http://www.w3.org/2000/svg">
<path d="M1 26L24.2857 2L47.5714 26L70.8571 2L94.1429 26L117.429 2L140.714 26L164 2" stroke="#E74C3C" stroke-width="2"/>
</svg>