<svg id="clock" width="20" height="20" viewBox="0 0 20 20" fill="none" xmlns="http://www.w3.org/2000/svg">
<path d="M10 20C4.477 20 0 15.523 0 10C0 4.477 4.477 0 10 0C15.523 0 20 4.477 20 10C20 15.523 15.523 20 10 20ZM10 18C12.1217 18 14.1566 17.1571 15.6569 15.6569C17.1571 14.1566 18 12.1217 18 10C18 7.87827 17.1571 5.84344 15.6569 4.34315C14.1566 2.84285 12.1217 2 10 2C7.87827 2 5.84344 2.84285 4.34315 4.34315C2.84285 5.84344 2 7.87827 2 10C2 12.1217 2.84285 14.1566 4.34315 15.6569C5.84344 17.1571 7.87827 18 10 18ZM11 10H15V12H9V5H11V10Z" fill="#E74C3C"/>
</svg>

<svg id="line" width="132" height="2" viewBox="0 0 132 2" fill="none" xmlns="http://www.w3.org/2000/svg">
<line x1="132" y1="1" x2="-8.74227e-08" y2="0.999988" stroke="#A92A1D" stroke-width="2"/>
</svg>



<svg id="vector" width="165" height="28" viewBox="0 0 165 28" fill="none" xmlns="http://www.w3.org/2000/svg">
<path d="M1 26L24.2857 2L47.5714 26L70.8571 2L94.1429 26L117.429 2L140.714 26L164 2" stroke="#E74C3C" stroke-width="2"/>
</svg>